<svg width="120" height="32" viewBox="0 0 120 32" fill="none" xmlns="http://www.w3.org/2000/svg">
<mask id="path-1-outside-1_37_81" maskUnits="userSpaceOnUse" x="-1" y="-1" width="122" height="34" fill="black">
<rect fill="white" x="-1" y="-1" width="122" height="34"/>
<path d="M17.904 25.192H5.664L6.48 20.488H16.944L17.904 25.192ZM12.048 12.712L7.2 31H0.48L9.984 1.096H14.064L23.568 31H16.752L12.048 12.712ZM25.44 31V1.096H34.992C36.816 1.096 38.4 1.288 39.744 1.672C41.12 2.024 42.256 2.552 43.152 3.256C44.08 3.928 44.768 4.744 45.216 5.704C45.696 6.632 45.936 7.672 45.936 8.824C45.936 9.592 45.776 10.408 45.456 11.272C45.136 12.104 44.672 12.872 44.064 13.576C43.456 14.28 42.704 14.824 41.808 15.208C42.608 15.592 43.328 16.04 43.968 16.552C44.64 17.064 45.2 17.624 45.648 18.232C46.128 18.808 46.48 19.432 46.704 20.104C46.96 20.776 47.088 21.48 47.088 22.216C47.088 23.528 46.832 24.728 46.32 25.816C45.808 26.904 45.04 27.832 44.016 28.6C42.992 29.368 41.728 29.96 40.224 30.376C38.72 30.792 36.96 31 34.944 31H25.44ZM32.256 25.48H35.472C36.464 25.48 37.296 25.336 37.968 25.048C38.64 24.728 39.152 24.312 39.504 23.8C39.856 23.288 40.032 22.712 40.032 22.072C40.032 21.272 39.856 20.584 39.504 20.008C39.184 19.4 38.624 18.936 37.824 18.616C37.056 18.264 36.016 18.088 34.704 18.088H32.256V25.48ZM32.256 12.76H34.56C35.744 12.76 36.656 12.632 37.296 12.376C37.968 12.088 38.432 11.688 38.688 11.176C38.944 10.664 39.072 10.072 39.072 9.4C39.072 8.92 38.992 8.504 38.832 8.152C38.672 7.8 38.416 7.512 38.064 7.288C37.744 7.032 37.328 6.84 36.816 6.712C36.304 6.584 35.712 6.52 35.04 6.52H32.256V12.76ZM60.144 31.576C57.584 31.576 55.456 30.968 53.76 29.752C52.064 28.536 50.784 26.776 49.92 24.472C49.088 22.136 48.672 19.304 48.672 15.976C48.672 12.68 49.088 9.896 49.92 7.624C50.784 5.32 52.064 3.56 53.76 2.344C55.456 1.128 57.584 0.519998 60.144 0.519998C62.672 0.519998 64.784 1.128 66.48 2.344C68.176 3.56 69.456 5.32 70.32 7.624C71.184 9.896 71.616 12.68 71.616 15.976C71.616 19.304 71.184 22.136 70.32 24.472C69.456 26.808 68.176 28.584 66.48 29.8C64.784 30.984 62.672 31.576 60.144 31.576ZM60.144 26.2C61.136 26.2 61.984 25.848 62.688 25.144C63.392 24.408 63.936 23.288 64.32 21.784C64.736 20.248 64.944 18.28 64.944 15.88C64.944 13.672 64.736 11.832 64.32 10.36C63.936 8.856 63.392 7.736 62.688 7C61.984 6.264 61.136 5.896 60.144 5.896C59.12 5.896 58.24 6.264 57.504 7C56.8 7.736 56.256 8.856 55.872 10.36C55.52 11.832 55.344 13.672 55.344 15.88C55.344 18.28 55.52 20.248 55.872 21.784C56.256 23.288 56.8 24.408 57.504 25.144C58.24 25.848 59.12 26.2 60.144 26.2ZM83.952 31.672C80.624 31.672 78.016 30.68 76.128 28.696C74.24 26.68 73.296 23.928 73.296 20.44V1.096H80.064H80.496V1.624C80.336 1.816 80.224 2.024 80.16 2.248C80.128 2.472 80.112 2.856 80.112 3.4V20.488C80.112 22.28 80.384 23.688 80.928 24.712C81.504 25.736 82.528 26.248 84 26.248C85.504 26.248 86.544 25.736 87.12 24.712C87.696 23.656 87.984 22.2 87.984 20.344V1.096H94.704V20.296C94.704 22.888 94.24 25.032 93.312 26.728C92.384 28.392 91.104 29.64 89.472 30.472C87.872 31.272 86.032 31.672 83.952 31.672ZM104.592 31V6.712H96.864V1.096H119.232V6.712H111.024V31H104.592Z"/>
</mask>
<path d="M17.904 25.192V26.192H19.1287L18.8838 24.992L17.904 25.192ZM5.664 25.192L4.67871 25.0211L4.4756 26.192H5.664V25.192ZM6.48 20.488V19.488H5.63854L5.49471 20.3171L6.48 20.488ZM16.944 20.488L17.9238 20.288L17.7605 19.488H16.944V20.488ZM12.048 12.712L13.0165 12.4629L12.0626 8.7544L11.0814 12.4558L12.048 12.712ZM7.2 31V32H7.96945L8.16661 31.2562L7.2 31ZM0.48 31L-0.473026 30.6971L-0.887106 32H0.48V31ZM9.984 1.096V0.0959988H9.25253L9.03097 0.793111L9.984 1.096ZM14.064 1.096L15.017 0.793111L14.7955 0.0959988H14.064V1.096ZM23.568 31V32H24.9351L24.521 30.6971L23.568 31ZM16.752 31L15.7835 31.2491L15.9767 32H16.752V31ZM17.904 24.192H5.664V26.192H17.904V24.192ZM6.64929 25.3629L7.46529 20.6589L5.49471 20.3171L4.67871 25.0211L6.64929 25.3629ZM6.48 21.488H16.944V19.488H6.48V21.488ZM15.9642 20.688L16.9242 25.392L18.8838 24.992L17.9238 20.288L15.9642 20.688ZM11.0814 12.4558L6.23339 30.7438L8.16661 31.2562L13.0146 12.9682L11.0814 12.4558ZM7.2 30H0.48V32H7.2V30ZM1.43303 31.3029L10.937 1.39889L9.03097 0.793111L-0.473026 30.6971L1.43303 31.3029ZM9.984 2.096H14.064V0.0959988H9.984V2.096ZM13.111 1.39889L22.615 31.3029L24.521 30.6971L15.017 0.793111L13.111 1.39889ZM23.568 30H16.752V32H23.568V30ZM17.7205 30.7509L13.0165 12.4629L11.0795 12.9611L15.7835 31.2491L17.7205 30.7509ZM25.44 31H24.44V32H25.44V31ZM25.44 1.096V0.0959988H24.44V1.096H25.44ZM39.744 1.672L39.4693 2.63352L39.4827 2.63735L39.4962 2.6408L39.744 1.672ZM43.152 3.256L42.5342 4.04232L42.5496 4.05444L42.5655 4.06594L43.152 3.256ZM45.216 5.704L44.3098 6.12688L44.3184 6.14534L44.3278 6.16342L45.216 5.704ZM45.456 11.272L46.3894 11.631L46.3938 11.6193L45.456 11.272ZM44.064 13.576L44.8208 14.2296L44.8208 14.2296L44.064 13.576ZM41.808 15.208L41.4141 14.2889L39.3897 15.1564L41.3753 16.1095L41.808 15.208ZM43.968 16.552L43.3433 17.3329L43.3525 17.3403L43.362 17.3474L43.968 16.552ZM45.648 18.232L44.8429 18.8252L44.8607 18.8492L44.8798 18.8722L45.648 18.232ZM46.704 20.104L45.7553 20.4202L45.762 20.4403L45.7695 20.46L46.704 20.104ZM40.224 30.376L40.4906 31.3398L40.4906 31.3398L40.224 30.376ZM32.256 25.48H31.256V26.48H32.256V25.48ZM37.968 25.048L38.3619 25.9671L38.3801 25.9594L38.3979 25.9509L37.968 25.048ZM39.504 20.008L38.6191 20.4737L38.634 20.5021L38.6507 20.5294L39.504 20.008ZM37.824 18.616L37.4073 19.5251L37.4297 19.5353L37.4526 19.5445L37.824 18.616ZM32.256 18.088V17.088H31.256V18.088H32.256ZM32.256 12.76H31.256V13.76H32.256V12.76ZM37.296 12.376L37.6674 13.3045L37.6787 13.2999L37.6899 13.2951L37.296 12.376ZM38.688 11.176L39.5824 11.6232L39.5824 11.6232L38.688 11.176ZM38.832 8.152L37.9216 8.5658L37.9216 8.5658L38.832 8.152ZM38.064 7.288L37.4393 8.06887L37.4815 8.10264L37.5271 8.13166L38.064 7.288ZM32.256 6.52V5.52H31.256V6.52H32.256ZM26.44 31V1.096H24.44V31H26.44ZM25.44 2.096H34.992V0.0959988H25.44V2.096ZM34.992 2.096C36.7497 2.096 38.237 2.28145 39.4693 2.63352L40.0187 0.710476C38.563 0.29455 36.8823 0.0959988 34.992 0.0959988V2.096ZM39.4962 2.6408C40.7697 2.96659 41.7709 3.4426 42.5342 4.04232L43.7698 2.46968C42.7411 1.6614 41.4703 1.08141 39.9918 0.703197L39.4962 2.6408ZM42.5655 4.06594C43.3673 4.64657 43.9395 5.33341 44.3098 6.12688L46.1222 5.28111C45.5965 4.15458 44.7927 3.20943 43.7385 2.44606L42.5655 4.06594ZM44.3278 6.16342C44.727 6.9353 44.936 7.81518 44.936 8.824H46.936C46.936 7.52882 46.665 6.3287 46.1042 5.24458L44.3278 6.16342ZM44.936 8.824C44.936 9.45242 44.8051 10.1502 44.5183 10.9247L46.3938 11.6193C46.7469 10.6657 46.936 9.73158 46.936 8.824H44.936ZM44.5227 10.913C44.2458 11.6327 43.8431 12.3018 43.3072 12.9224L44.8208 14.2296C45.5009 13.4422 46.0262 12.5753 46.3893 11.631L44.5227 10.913ZM43.3072 12.9224C42.8032 13.5059 42.1774 13.9617 41.4141 14.2889L42.2019 16.1271C43.2306 15.6863 44.1088 15.0541 44.8208 14.2296L43.3072 12.9224ZM41.3753 16.1095C42.1125 16.4634 42.7672 16.872 43.3433 17.3329L44.5927 15.7711C43.8888 15.208 43.1035 14.7206 42.2407 14.3065L41.3753 16.1095ZM43.362 17.3474C43.9672 17.8086 44.4576 18.3022 44.8429 18.8252L46.4531 17.6388C45.9424 16.9458 45.3128 16.3194 44.574 15.7566L43.362 17.3474ZM44.8798 18.8722C45.2847 19.3581 45.573 19.8733 45.7553 20.4202L47.6527 19.7878C47.387 18.9907 46.9713 18.2579 46.4162 17.5918L44.8798 18.8722ZM45.7695 20.46C45.9812 21.0156 46.088 21.5987 46.088 22.216H48.088C48.088 21.3612 47.9388 20.5364 47.6385 19.748L45.7695 20.46ZM46.088 22.216C46.088 23.3944 45.859 24.4472 45.4152 25.3902L47.2248 26.2418C47.805 25.0088 48.088 23.6616 48.088 22.216H46.088ZM45.4152 25.3902C44.9772 26.3209 44.318 27.1235 43.416 27.8L44.616 29.4C45.762 28.5405 46.6388 27.4871 47.2248 26.2418L45.4152 25.3902ZM43.416 27.8C42.5112 28.4786 41.3666 29.0224 39.9574 29.4122L40.4906 31.3398C42.0894 30.8976 43.4728 30.2574 44.616 29.4L43.416 27.8ZM39.9574 29.4122C38.5612 29.7984 36.8947 30 34.944 30V32C37.0253 32 38.8788 31.7856 40.4906 31.3398L39.9574 29.4122ZM34.944 30H25.44V32H34.944V30ZM32.256 26.48H35.472V24.48H32.256V26.48ZM35.472 26.48C36.5539 26.48 37.5295 26.3239 38.3619 25.9671L37.5741 24.1289C37.0625 24.3481 36.3741 24.48 35.472 24.48V26.48ZM38.3979 25.9509C39.1971 25.5703 39.8585 25.0495 40.328 24.3665L38.68 23.2335C38.4455 23.5745 38.0829 23.8857 37.5381 24.1451L38.3979 25.9509ZM40.328 24.3665C40.7983 23.6826 41.032 22.9078 41.032 22.072H39.032C39.032 22.5162 38.9137 22.8934 38.68 23.2335L40.328 24.3665ZM41.032 22.072C41.032 21.1224 40.8217 20.2465 40.3573 19.4865L38.6507 20.5294C38.8903 20.9215 39.032 21.4216 39.032 22.072H41.032ZM40.3889 19.5423C39.9323 18.6747 39.1583 18.0727 38.1954 17.6875L37.4526 19.5445C38.0897 19.7993 38.4357 20.1253 38.6191 20.4737L40.3889 19.5423ZM38.2407 17.7069C37.2897 17.2711 36.0884 17.088 34.704 17.088V19.088C35.9436 19.088 36.8223 19.2569 37.4073 19.5251L38.2407 17.7069ZM34.704 17.088H32.256V19.088H34.704V17.088ZM31.256 18.088V25.48H33.256V18.088H31.256ZM32.256 13.76H34.56V11.76H32.256V13.76ZM34.56 13.76C35.7932 13.76 36.8537 13.63 37.6674 13.3045L36.9246 11.4475C36.4583 11.634 35.6948 11.76 34.56 11.76V13.76ZM37.6899 13.2951C38.5176 12.9404 39.1941 12.3999 39.5824 11.6232L37.7936 10.7288C37.6699 10.9761 37.4184 11.2356 36.9021 11.4569L37.6899 13.2951ZM39.5824 11.6232C39.919 10.9501 40.072 10.2003 40.072 9.4H38.072C38.072 9.94366 37.969 10.3779 37.7936 10.7288L39.5824 11.6232ZM40.072 9.4C40.072 8.81078 39.9739 8.24756 39.7424 7.7382L37.9216 8.5658C38.0101 8.76044 38.072 9.02922 38.072 9.4H40.072ZM39.7424 7.7382C39.4958 7.19571 39.1029 6.7638 38.6009 6.44434L37.5271 8.13166C37.7291 8.26019 37.8482 8.40429 37.9216 8.5658L39.7424 7.7382ZM38.6887 6.50713C38.229 6.13937 37.6714 5.89508 37.0585 5.74186L36.5735 7.68214C36.9846 7.78492 37.259 7.92463 37.4393 8.06887L38.6887 6.50713ZM37.0585 5.74186C36.4491 5.58949 35.7727 5.52 35.04 5.52V7.52C35.6513 7.52 36.1589 7.5785 36.5735 7.68214L37.0585 5.74186ZM35.04 5.52H32.256V7.52H35.04V5.52ZM31.256 6.52V12.76H33.256V6.52H31.256ZM53.76 29.752L53.1773 30.5647L53.76 29.752ZM49.92 24.472L48.978 24.8075L48.9808 24.8153L48.9837 24.8231L49.92 24.472ZM49.92 7.624L48.9836 7.27287L48.981 7.28013L49.92 7.624ZM53.76 2.344L54.3427 3.1567L54.3427 3.1567L53.76 2.344ZM66.48 2.344L65.8973 3.1567L65.8973 3.1567L66.48 2.344ZM70.32 7.624L69.3837 7.97513L69.3853 7.97945L70.32 7.624ZM70.32 24.472L71.2579 24.8189L71.2579 24.8189L70.32 24.472ZM66.48 29.8L67.0525 30.62L67.0627 30.6127L66.48 29.8ZM62.688 25.144L63.3951 25.8511L63.403 25.8433L63.4106 25.8352L62.688 25.144ZM64.32 21.784L63.3548 21.5226L63.3529 21.5296L63.3511 21.5366L64.32 21.784ZM64.32 10.36L63.3511 10.6074L63.3542 10.6197L63.3577 10.632L64.32 10.36ZM62.688 7L63.4106 6.30878L63.4106 6.30878L62.688 7ZM57.504 7L56.7969 6.29289L56.789 6.30075L56.7814 6.30878L57.504 7ZM55.872 10.36L54.9031 10.1126L54.9012 10.12L54.8994 10.1274L55.872 10.36ZM55.872 21.784L54.8973 22.0074L54.9 22.0194L54.9031 22.0314L55.872 21.784ZM57.504 25.144L56.7814 25.8352L56.7967 25.8513L56.8128 25.8666L57.504 25.144ZM60.144 30.576C57.7449 30.576 55.8335 30.0082 54.3427 28.9393L53.1773 30.5647C55.0785 31.9278 57.4231 32.576 60.144 32.576V30.576ZM54.3427 28.9393C52.8348 27.8582 51.6635 26.2733 50.8563 24.1209L48.9837 24.8231C49.9045 27.2787 51.2932 29.2138 53.1773 30.5647L54.3427 28.9393ZM50.862 24.1365C50.079 21.938 49.672 19.2263 49.672 15.976H47.672C47.672 19.3817 48.097 22.334 48.978 24.8075L50.862 24.1365ZM49.672 15.976C49.672 12.7577 50.079 10.0978 50.859 7.96787L48.981 7.28013C48.097 9.69421 47.672 12.6023 47.672 15.976H49.672ZM50.8563 7.97512C51.6635 5.82269 52.8348 4.23782 54.3427 3.1567L53.1773 1.5313C51.2932 2.88218 49.9045 4.8173 48.9837 7.27288L50.8563 7.97512ZM54.3427 3.1567C55.8335 2.08783 57.7449 1.52 60.144 1.52V-0.480002C57.4231 -0.480002 55.0785 0.168167 53.1773 1.5313L54.3427 3.1567ZM60.144 1.52C62.508 1.52 64.4045 2.08636 65.8973 3.1567L67.0627 1.5313C65.1635 0.169637 62.836 -0.480002 60.144 -0.480002V1.52ZM65.8973 3.1567C67.4052 4.23782 68.5765 5.82269 69.3837 7.97512L71.2563 7.27288C70.3355 4.8173 68.9468 2.88218 67.0627 1.5313L65.8973 3.1567ZM69.3853 7.97945C70.1938 10.1054 70.616 12.761 70.616 15.976H72.616C72.616 12.599 72.1742 9.68659 71.2547 7.26855L69.3853 7.97945ZM70.616 15.976C70.616 19.223 70.1938 21.9305 69.3821 24.1251L71.2579 24.8189C72.1742 22.3415 72.616 19.385 72.616 15.976H70.616ZM69.3821 24.1251C68.5737 26.3107 67.4018 27.9086 65.8973 28.9873L67.0627 30.6127C68.9502 29.2594 70.3383 27.3053 71.2579 24.8189L69.3821 24.1251ZM65.9076 28.98C64.4137 30.023 62.5134 30.576 60.144 30.576V32.576C62.8306 32.576 65.1543 31.945 67.0524 30.62L65.9076 28.98ZM60.144 27.2C61.4023 27.2 62.5043 26.7419 63.3951 25.8511L61.9809 24.4369C61.4637 24.9541 60.8697 25.2 60.144 25.2V27.2ZM63.4106 25.8352C64.28 24.9264 64.8828 23.6219 65.2889 22.0314L63.3511 21.5366C62.9892 22.9541 62.504 23.8896 61.9654 24.4528L63.4106 25.8352ZM65.2852 22.0454C65.7328 20.3928 65.944 18.3284 65.944 15.88H63.944C63.944 18.2316 63.7392 20.1032 63.3548 21.5226L65.2852 22.0454ZM65.944 15.88C65.944 13.617 65.7317 11.6781 65.2823 10.088L63.3577 10.632C63.7403 11.9859 63.944 13.727 63.944 15.88H65.944ZM65.2889 10.1126C64.8828 8.52214 64.28 7.21765 63.4106 6.30878L61.9654 7.69122C62.504 8.25435 62.9892 9.18985 63.3511 10.6074L65.2889 10.1126ZM63.4106 6.30878C62.5237 5.38149 61.417 4.896 60.144 4.896V6.896C60.855 6.896 61.4443 7.14651 61.9654 7.69122L63.4106 6.30878ZM60.144 4.896C58.8499 4.896 57.717 5.37282 56.7969 6.29289L58.2111 7.70711C58.763 7.15518 59.3901 6.896 60.144 6.896V4.896ZM56.7814 6.30878C55.912 7.21765 55.3092 8.52214 54.9031 10.1126L56.8409 10.6074C57.2028 9.18985 57.688 8.25435 58.2266 7.69122L56.7814 6.30878ZM54.8994 10.1274C54.523 11.7017 54.344 13.626 54.344 15.88H56.344C56.344 13.718 56.517 11.9623 56.8446 10.5926L54.8994 10.1274ZM54.344 15.88C54.344 18.3205 54.5222 20.3706 54.8973 22.0074L56.8467 21.5606C56.5178 20.1254 56.344 18.2395 56.344 15.88H54.344ZM54.9031 22.0314C55.3092 23.6219 55.912 24.9264 56.7814 25.8352L58.2266 24.4528C57.688 23.8896 57.2028 22.9541 56.8409 21.5366L54.9031 22.0314ZM56.8128 25.8666C57.736 26.7497 58.864 27.2 60.144 27.2V25.2C59.376 25.2 58.744 24.9463 58.1952 24.4214L56.8128 25.8666ZM76.128 28.696L75.3981 29.3796L75.4036 29.3854L76.128 28.696ZM73.296 1.096V0.0959988H72.296V1.096H73.296ZM80.496 1.096H81.496V0.0959988H80.496V1.096ZM80.496 1.624L81.2642 2.26418L81.496 1.98605V1.624H80.496ZM80.16 2.248L79.1985 1.97328L79.1797 2.03896L79.1701 2.10658L80.16 2.248ZM80.928 24.712L80.0449 25.1812L80.0505 25.1918L80.0564 25.2023L80.928 24.712ZM87.12 24.712L87.9917 25.2023L87.9979 25.1909L87.12 24.712ZM87.984 1.096V0.0959988H86.984V1.096H87.984ZM94.704 1.096H95.704V0.0959988H94.704V1.096ZM93.312 26.728L94.1854 27.2151L94.1893 27.208L93.312 26.728ZM89.472 30.472L89.9192 31.3665L89.9262 31.3629L89.472 30.472ZM83.952 30.672C80.8345 30.672 78.5121 29.7507 76.8524 28.0066L75.4036 29.3854C77.5199 31.6093 80.4135 32.672 83.952 32.672V30.672ZM76.8579 28.0124C75.1858 26.2269 74.296 23.7437 74.296 20.44H72.296C72.296 24.1123 73.2942 27.1331 75.3981 29.3796L76.8579 28.0124ZM74.296 20.44V1.096H72.296V20.44H74.296ZM73.296 2.096H80.064V0.0959988H73.296V2.096ZM80.064 2.096H80.496V0.0959988H80.064V2.096ZM79.496 1.096V1.624H81.496V1.096H79.496ZM79.7278 0.983816C79.4852 1.27493 79.3035 1.60577 79.1985 1.97328L81.1215 2.52272C81.1445 2.44223 81.1868 2.35706 81.2642 2.26418L79.7278 0.983816ZM79.1701 2.10658C79.127 2.4082 79.112 2.85592 79.112 3.4H81.112C81.112 2.85607 81.129 2.5358 81.1499 2.38942L79.1701 2.10658ZM79.112 3.4V20.488H81.112V3.4H79.112ZM79.112 20.488C79.112 22.3625 79.3934 23.9549 80.0449 25.1812L81.8111 24.2428C81.3746 23.4211 81.112 22.1975 81.112 20.488H79.112ZM80.0564 25.2023C80.8564 26.6244 82.2736 27.248 84 27.248V25.248C82.7824 25.248 82.1516 24.8476 81.7996 24.2217L80.0564 25.2023ZM84 27.248C85.7478 27.248 87.1875 26.6317 87.9916 25.2023L86.2484 24.2217C85.9005 24.8403 85.2602 25.248 84 25.248V27.248ZM87.9979 25.1909C88.686 23.9293 88.984 22.2845 88.984 20.344H86.984C86.984 22.1155 86.706 23.3827 86.2421 24.2331L87.9979 25.1909ZM88.984 20.344V1.096H86.984V20.344H88.984ZM87.984 2.096H94.704V0.0959988H87.984V2.096ZM93.704 1.096V20.296H95.704V1.096H93.704ZM93.704 20.296C93.704 22.7751 93.2594 24.7408 92.4347 26.248L94.1893 27.208C95.2206 25.3232 95.704 23.0009 95.704 20.296H93.704ZM92.4386 26.2409C91.6031 27.7391 90.4658 28.8429 89.0178 29.5811L89.9262 31.3629C91.7422 30.4371 93.1649 29.0449 94.1854 27.2151L92.4386 26.2409ZM89.0248 29.5776C87.5846 30.2977 85.902 30.672 83.952 30.672V32.672C86.162 32.672 88.1594 32.2463 89.9192 31.3664L89.0248 29.5776ZM104.592 31H103.592V32H104.592V31ZM104.592 6.712H105.592V5.712H104.592V6.712ZM96.864 6.712H95.864V7.712H96.864V6.712ZM96.864 1.096V0.0959988H95.864V1.096H96.864ZM119.232 1.096H120.232V0.0959988H119.232V1.096ZM119.232 6.712V7.712H120.232V6.712H119.232ZM111.024 6.712V5.712H110.024V6.712H111.024ZM111.024 31V32H112.024V31H111.024ZM105.592 31V6.712H103.592V31H105.592ZM104.592 5.712H96.864V7.712H104.592V5.712ZM97.864 6.712V1.096H95.864V6.712H97.864ZM96.864 2.096H119.232V0.0959988H96.864V2.096ZM118.232 1.096V6.712H120.232V1.096H118.232ZM119.232 5.712H111.024V7.712H119.232V5.712ZM110.024 6.712V31H112.024V6.712H110.024ZM111.024 30H104.592V32H111.024V30Z" fill="#D9D9D9" mask="url(#path-1-outside-1_37_81)"/>
</svg>
