<svg width="15" height="15" viewBox="0 0 15 15" fill="none" xmlns="http://www.w3.org/2000/svg">
<path d="M8.5 6.5C8.5 5.94772 8.05228 5.5 7.5 5.5C6.94772 5.5 6.5 5.94772 6.5 6.5L8.5 6.5ZM6.79289 8.20711C7.18342 8.59763 7.81658 8.59763 8.20711 8.20711L14.5711 1.84315C14.9616 1.45262 14.9616 0.819457 14.5711 0.428932C14.1805 0.0384082 13.5474 0.0384082 13.1569 0.428932L7.5 6.08579L1.84315 0.428932C1.45262 0.0384076 0.819457 0.0384076 0.428932 0.428932C0.0384081 0.819456 0.0384081 1.45262 0.428932 1.84315L6.79289 8.20711ZM6.5 6.5L6.5 7.5L8.5 7.5L8.5 6.5L6.5 6.5Z" fill="white"/>
<path d="M8.5 12.5C8.5 11.9477 8.05228 11.5 7.5 11.5C6.94772 11.5 6.5 11.9477 6.5 12.5L8.5 12.5ZM6.79289 14.2071C7.18342 14.5976 7.81658 14.5976 8.20711 14.2071L14.5711 7.84315C14.9616 7.45262 14.9616 6.81946 14.5711 6.42893C14.1805 6.03841 13.5474 6.03841 13.1569 6.42893L7.5 12.0858L1.84315 6.42893C1.45262 6.03841 0.819457 6.03841 0.428932 6.42893C0.0384081 6.81946 0.0384081 7.45262 0.428932 7.84315L6.79289 14.2071ZM6.5 12.5L6.5 13.5L8.5 13.5L8.5 12.5L6.5 12.5Z" fill="white"/>
</svg>
