<svg width="30" height="30" viewBox="0 0 30 30" fill="none" xmlns="http://www.w3.org/2000/svg">
<path d="M28 24C27.4 24 27 23.6267 27 23.0667V10.9333C27 10.3733 27.4 10 28 10C28.6 10 29 10.3733 29 10.9333V23.0667C29 23.6267 28.6 24 28 24Z" fill="white"/>
<path d="M15 19.6875C14.8125 19.6875 14.7188 19.6875 14.5312 19.5937L0.46875 12.0937C0.1875 11.9062 0 11.625 0 11.25C0 10.875 0.1875 10.5938 0.46875 10.4063L14.5312 2.90625C14.8125 2.71875 15.0937 2.71875 15.375 2.90625L29.4375 10.4063C29.7187 10.5938 29.9062 10.875 29.9062 11.25C29.9062 11.625 29.7187 11.9062 29.4375 12.0937L15.375 19.5937C15.2812 19.6875 15.1875 19.6875 15 19.6875Z" fill="white"/>
<path d="M16.3125 21.1875C15.9375 21.4687 15.4688 21.5625 15 21.5625C14.5312 21.5625 14.0625 21.4687 13.6875 21.1875L5.625 16.9688V20.625C5.625 23.5312 10.2188 26.25 15 26.25C19.7812 26.25 24.375 23.5312 24.375 20.625V16.9688L16.3125 21.1875Z" fill="white"/>
</svg>
