<svg width="26" height="26" viewBox="0 0 26 26" fill="none" xmlns="http://www.w3.org/2000/svg">
<path d="M23 5.5H19.25V3C19.25 2.33696 18.9866 1.70107 18.5178 1.23223C18.0489 0.763392 17.413 0.5 16.75 0.5H9.25C8.58696 0.5 7.95107 0.763392 7.48223 1.23223C7.01339 1.70107 6.75 2.33696 6.75 3V5.5H3C2.33696 5.5 1.70107 5.76339 1.23223 6.23223C0.763392 6.70107 0.5 7.33696 0.5 8V23C0.5 23.663 0.763392 24.2989 1.23223 24.7678C1.70107 25.2366 2.33696 25.5 3 25.5H23C23.663 25.5 24.2989 25.2366 24.7678 24.7678C25.2366 24.2989 25.5 23.663 25.5 23V8C25.5 7.33696 25.2366 6.70107 24.7678 6.23223C24.2989 5.76339 23.663 5.5 23 5.5ZM9.25 3H16.75V5.5H9.25V3Z" fill="white"/>
<rect x="3" y="15" width="20" height="2" rx="1" fill="black"/>
<rect x="1" y="15" width="24" height="2" fill="#191919"/>
<rect x="10" y="13" width="6" height="6" rx="3" fill="#191919"/>
</svg>
